{"accessors" : [{"bufferView" : 0, "byteOffset" : 0, "componentType" : 5123, "count" : 5946, "type" : "SCALAR", "max" : [4947], "min" : [0]}, {"bufferView" : 1, "byteOffset" : 0, "componentType" : 5126, "count" : 4948, "type" : "VEC3", "max" : [49.039573669433594, -11.355998992919922, 41.62181854248047], "min" : [-10.015543937683105, -23.439504623413086, 21.352888107299805], "name" : "POSITION"}, {"bufferView" : 1, "byteOffset" : 12, "componentType" : 5126, "count" : 4948, "type" : "VEC2", "max" : [140.4710235595703, 167.9481964111328], "min" : [-37.86634063720703, -151.43548583984375], "name" : "TEXCOORD_0"}, {"bufferView" : 1, "byteOffset" : 20, "componentType" : 5126, "count" : 4948, "type" : "VEC3", "max" : [1.0000044107437134, 1.0000044107437134, 1.0000044107437134], "min" : [-1.0000044107437134, -0.9875558614730835, -1.0000044107437134], "name" : "NORMAL"}, {"bufferView" : 0, "byteOffset" : 11892, "componentType" : 5123, "count" : 5946, "type" : "SCALAR", "max" : [4947], "min" : [0]}, {"bufferView" : 2, "byteOffset" : 0, "componentType" : 5126, "count" : 4948, "type" : "VEC3", "max" : [49.039573669433594, -11.355998992919922, 3.4328439235687256], "min" : [-10.015543937683105, -23.439504623413086, -16.836088180541992], "name" : "POSITION"}, {"bufferView" : 2, "byteOffset" : 12, "componentType" : 5126, "count" : 4948, "type" : "VEC2", "max" : [140.4710235595703, 167.9481964111328], "min" : [-37.86634063720703, -151.43548583984375], "name" : "TEXCOORD_0"}, {"bufferView" : 2, "byteOffset" : 20, "componentType" : 5126, "count" : 4948, "type" : "VEC3", "max" : [1.0000044107437134, 1.0000044107437134, 1.0000044107437134], "min" : [-1.0000044107437134, -0.9875558614730835, -1.0000044107437134], "name" : "NORMAL"}, {"bufferView" : 0, "byteOffset" : 23784, "componentType" : 5123, "count" : 444, "type" : "SCALAR", "max" : [413], "min" : [0]}, {"bufferView" : 3, "byteOffset" : 0, "componentType" : 5126, "count" : 414, "type" : "VEC3", "max" : [46.84469223022461, 5.479137897491455, 32.08774948120117], "min" : [19.305322647094727, -14.993303298950195, -7.2823309898376465], "name" : "POSITION"}, {"bufferView" : 3, "byteOffset" : 12, "componentType" : 5126, "count" : 414, "type" : "VEC2", "max" : [75, 20], "min" : [-75, -29], "name" : "TEXCOORD_0"}, {"bufferView" : 3, "byteOffset" : 20, "componentType" : 5126, "count" : 414, "type" : "VEC3", "max" : [1.0000044107437134, 1.0000044107437134, 1.0000044107437134], "min" : [-1.0000044107437134, -1.0000044107437134, -1.0000044107437134], "name" : "NORMAL"}], "asset" : {"generator" : "Aspose.3D 23.2", "version" : "2.0"}, "buffers" : [{"uri" : "data:application/octet-stream;base64,", "byteLength" : 419440}], "bufferViews" : [{"buffer" : 0, "byteOffset" : 0, "byteLength" : 24672, "target" : 34963}, {"buffer" : 0, "byteOffset" : 24676, "byteLength" : 190272, "byteStride" : 32, "target" : 34962}, {"buffer" : 0, "byteOffset" : 214952, "byteLength" : 190272, "byteStride" : 32, "target" : 34962}, {"buffer" : 0, "byteOffset" : 405228, "byteLength" : 14208, "byteStride" : 32, "target" : 34962}], "meshes" : [{"primitives" : [{"attributes" : {"POSITION" : 1, "TEXCOORD_0" : 2, "NORMAL" : 3}, "indices" : 0, "mode" : 4}], "name" : ""}, {"primitives" : [{"attributes" : {"POSITION" : 5, "TEXCOORD_0" : 6, "NORMAL" : 7}, "indices" : 4, "mode" : 4}], "name" : ""}, {"primitives" : [{"attributes" : {"POSITION" : 9, "TEXCOORD_0" : 10, "NORMAL" : 11}, "indices" : 8, "mode" : 4}], "name" : ""}], "nodes" : [{"mesh" : 0, "name" : "Solid1"}, {"mesh" : 1, "name" : "Solid1:1"}, {"mesh" : 2, "name" : "Solid1:2"}], "scene" : 0, "scenes" : [{"nodes" : [0, 1, 2]}]}